# xmcd CD database file
#
# Track frame offsets:
#	150
#	21468
#	40790
#	59188
#	73228
#	105090
#	127798
#	144955
#	161093
#	178753
#	194640
#	212768
#	238330
#
# Disc length: 3380 seconds
#
# Revision: 0
# Processed by: cddbd v1.5.1PL0 Copyright (c) Steve Scherf et al.
# Submitted via: CDex 1.60beta1
#
DISCID=c40d320d
DTITLE=Angel Parra y Trio - Angel Parra y Trio
DYEAR=1900
DGENRE=Jazz
TTITLE0=I MEAN YOU
TTITLE1=FAR WES
TTITLE2=CONDORITO VIVE
TTITLE3=CANCION PARA QUE DUERMAS
TTITLE4=MR. PETE
TTITLE5=PUERTO MAIHUE
TTITLE6=FAST FOOD
TTITLE7=S.O.S.
TTITLE8=MANITOS PEQUEÑAS
TTITLE9=BEATIFUL LOVE
TTITLE10=THE BLESSING
TTITLE11=SACADO DE UN CUENTO
TTITLE12=BEGIN THE BLUES
EXTD=
EXTT0=
EXTT1=
EXTT2=
EXTT3=
EXTT4=
EXTT5=
EXTT6=
EXTT7=
EXTT8=
EXTT9=
EXTT10=
EXTT11=
EXTT12=
PLAYORDER=
